<?xml version="1.0" standalone="no"?>
<!DOCTYPE svg PUBLIC "-//W3C//DTD SVG 20010904//EN"
 "http://www.w3.org/TR/2001/REC-SVG-20010904/DTD/svg10.dtd">
<svg version="1.0" xmlns="http://www.w3.org/2000/svg"
 width="512.000000pt" height="512.000000pt" viewBox="0 0 512.000000 512.000000"
 preserveAspectRatio="xMidYMid meet">
<metadata>
Created by potrace 1.14, written by Peter Selinger 2001-2017
</metadata>
<g transform="translate(0.000000,512.000000) scale(0.100000,-0.100000)"
fill="#000000" stroke="none">
<path d="M2365 5114 c-27 -2 -111 -13 -185 -24 -710 -105 -1348 -511 -1752
-1115 -202 -302 -340 -661 -400 -1040 -32 -201 -32 -549 0 -750 115 -729 511
-1352 1117 -1757 302 -202 661 -340 1040 -400 201 -32 549 -32 750 0 284 45
512 117 764 243 501 248 902 649 1150 1150 126 252 198 480 243 764 32 201 32
549 0 750 -115 729 -511 1352 -1117 1757 -299 200 -662 340 -1030 398 -127 20
-459 34 -580 24z m-795 -1983 c245 -77 400 -298 400 -571 0 -336 -223 -575
-555 -597 -424 -27 -711 307 -630 734 43 226 215 401 440 448 95 20 259 13
345 -14z m2450 -1 c129 -43 217 -123 259 -235 37 -98 40 -95 -107 -95 l-128 0
-17 35 c-35 74 -159 119 -263 96 -68 -16 -124 -61 -124 -100 0 -65 64 -104
208 -126 275 -41 447 -140 488 -281 74 -256 -176 -480 -516 -461 -216 13 -374
108 -450 272 -16 33 -31 75 -35 93 l-7 32 121 0 120 0 19 -44 c36 -81 125
-128 242 -130 92 -1 159 26 190 76 29 47 25 76 -14 113 -40 37 -100 58 -255
85 -196 35 -329 106 -388 207 -25 43 -28 57 -28 138 0 73 4 98 22 131 50 94
176 178 313 209 93 21 265 14 350 -15z m-1230 -15 c256 -57 400 -214 440 -479
35 -237 -61 -459 -245 -561 -126 -71 -278 -95 -597 -95 l-218 0 0 581 0 581
273 -5 c201 -4 291 -9 347 -22z"/>
<path d="M1288 2927 c-148 -42 -223 -166 -223 -367 0 -177 53 -285 169 -345
50 -25 70 -30 135 -30 99 0 174 35 231 106 58 74 75 133 75 269 0 136 -17 195
-75 269 -69 87 -202 129 -312 98z"/>
<path d="M2440 2560 l0 -363 108 7 c143 9 203 22 251 54 88 59 125 149 125
302 0 153 -37 243 -125 302 -48 32 -108 45 -251 54 l-108 7 0 -363z"/>
</g>
</svg>
